<svg xmlns="http://www.w3.org/2000/svg" viewBox="0 0 82.79 82.79"><defs><style>.cls-1{fill:#d8226d;}.cls-2{fill:none;}</style></defs><title>Risorsa 3</title><g id="Livello_2" data-name="Livello 2"><g id="Livello_1-2" data-name="Livello 1"><path class="cls-1" d="M57,40.87a7.29,7.29,0,1,0,7.44,7.29A7.37,7.37,0,0,0,57,40.87Zm0,12.5a5.21,5.21,0,1,1,5.31-5.21A5.27,5.27,0,0,1,57,53.37Z"/><path class="cls-1" d="M32.6,20.05A7.29,7.29,0,1,0,40,27.34,7.37,7.37,0,0,0,32.6,20.05Zm0,12.5a5.21,5.21,0,1,1,5.31-5.21A5.27,5.27,0,0,1,32.6,32.55Z"/><polygon class="cls-1" points="19.11 32.55 17.61 31.07 13.05 35.54 8.49 31.07 6.99 32.55 11.55 37.01 6.99 41.48 8.49 42.96 13.05 38.49 17.61 42.96 19.11 41.48 14.55 37.01 19.11 32.55"/><polygon class="cls-1" points="75.8 18.4 74.3 16.93 69.74 21.4 65.18 16.93 63.68 18.4 68.24 22.87 63.68 27.34 65.18 28.81 69.74 24.34 74.3 28.81 75.8 27.34 71.24 22.87 75.8 18.4"/><path class="cls-1" d="M58.56,20.16,52.19,17a1.07,1.07,0,0,0-1.48.6l-2.12,6.25,2,.66,1.32-3.89c.1.2.19.38.27.52a7.55,7.55,0,0,1,.74,4.18,21.17,21.17,0,0,1-4.15,11.48,17.76,17.76,0,0,1-1.78,2,31.4,31.4,0,0,1-7.07,4.81c-3.75,2.09-7.6,4.27-9.81,8.21a7.26,7.26,0,1,0,4.6,6.73A7.22,7.22,0,0,0,32,52.9c1.9-3.46,5.36-5.41,9-7.46a33.41,33.41,0,0,0,7.54-5.17,19.46,19.46,0,0,0,2-2.21,23.25,23.25,0,0,0,4.55-12.61,9.83,9.83,0,0,0-.93-5.14L57.61,22Zm-26,38.41a5.31,5.31,0,1,1-5.31-5.2A5.27,5.27,0,0,1,32.6,58.57Z"/><rect class="cls-2" width="82.79" height="82.79"/></g></g></svg>