<svg xmlns="http://www.w3.org/2000/svg" viewBox="0 0 482.29 151.31"><defs><style>.cls-1{fill:#010101;}.cls-2{fill:none;}.cls-3{fill:#d8226d;}</style></defs><title>Risorsa 1</title><g id="Livello_2" data-name="Livello 2"><g id="Livello_1-2" data-name="Livello 1"><g id="Livello_2-2" data-name="Livello 2"><g id="Livello_1-2-2" data-name="Livello 1-2"><path class="cls-1" d="M145.18,0h-.31l-48,69.73L77.65,0H31.52L0,151.2H49.84L63.29,86.87l10.43,38.51h26l26.57-38.51L112.88,151.2h49.83L175.6,89.41Z"/><path class="cls-2" d="M222.65,114.21h47.88c12.28,0,19.7-2.08,21.09-8.8,1.62-7.65-8.35-9.51-26.19-16C255,85.59,247.17,81,242,75.12L226.29,96Z"/><polygon class="cls-3" points="349.71 34.94 353.58 16.59 349.71 34.94 349.71 34.94"/><path class="cls-3" d="M309.18,0c-3.82,0-7.43,0-10.85.07L242,75.12c5.18,5.9,13,10.47,23.44,14.29,17.84,6.49,27.81,8.35,26.19,16-1.39,6.72-8.81,8.8-21.09,8.8H222.65l-7.4,37,52.73.1c29.15,0,49.23-7.55,61.47-20.31a52.66,52.66,0,0,0,13.39-25.82,57,57,0,0,0,1.39-12.28,35.08,35.08,0,0,0-3.41-15.8c-4.57-9.22-14.17-16.73-31.35-21.75-15.76-4.63-22.72-6.26-22.72-11.12,0-8.12,11.59-9.28,23.18-9.28h39.78l3.87-18.35L357.08,0Z"/><polygon class="cls-3" points="194.23 0 175.6 89.41 145.17 0 194.23 0"/><polyline class="cls-1" points="214.68 151.2 215.25 151.2 222.65 114.21 226.29 96.03 241.99 75.12 298.33 0.07 298.39 0 246.56 0 209.83 52.59 194.29 0 194.23 0 175.6 89.41 177.85 96.03 166.8 151.2 214.68 151.2"/><path class="cls-1" d="M434.73,0H357.08l-3.5,16.59-3.87,18.35h0l-8.89,42.15a35.08,35.08,0,0,1,3.41,15.8,57,57,0,0,1-1.39,12.28A52.65,52.65,0,0,1,329.45,131l-4.29,20.31H375l8-38.65h29.67c39.17,0,61.42-21.33,68.14-56.09a60.91,60.91,0,0,0,1.48-12.76C482.29,18.77,466.48,0,434.73,0Zm-4.64,56.56c-2.31,10.43-7.41,17.38-20.62,17.38H391.39l7.41-35.23h19c9.27,0,13,4.17,13,11.36A32.17,32.17,0,0,1,430.09,56.56Z"/></g></g></g></g></svg>