<svg xmlns="http://www.w3.org/2000/svg" viewBox="0 0 82.79 82.79"><defs><style>.cls-1{fill:#d8226d;}.cls-2{fill:none;}</style></defs><title>Risorsa 2</title><g id="Livello_2" data-name="Livello 2"><g id="Livello_1-2" data-name="Livello 1"><path class="cls-1" d="M68.06,24.9c0-4.52-2.37-7-6.52-7a14.69,14.69,0,0,0-4.17.69c.1-1.85.1-3,.1-3.05v-.79H25.32v.79s0,1.19.1,3.05a14.69,14.69,0,0,0-4.17-.69c-4.15,0-6.47,2.5-6.52,7a21.66,21.66,0,0,0,3,11.79,19,19,0,0,0,6.4,6.38,15,15,0,0,0,7.71,2.11,11.89,11.89,0,0,0,1.36-.07h.08a12.52,12.52,0,0,0,3,2.4,3.1,3.1,0,0,1,1.53,2.08,2.6,2.6,0,0,0,.07,5v3.33H33.6v3.47H29.37v6.68H53.42V61.38H49.19V57.91H44.9V54.58a2.6,2.6,0,0,0,.07-5A3.1,3.1,0,0,1,46.5,47.5a12.33,12.33,0,0,0,3-2.4,12.11,12.11,0,0,0,1.44.08h0a15,15,0,0,0,7.71-2.11A19.1,19.1,0,0,0,65,36.69,21.74,21.74,0,0,0,68.06,24.9ZM55.87,16.31c0,.29,0,.66,0,1.08H27c0-.42,0-.79,0-1.08ZM57,23.59a12.41,12.41,0,0,1,3.71-.72,2.83,2.83,0,0,1,2.24.76,3.65,3.65,0,0,1,.48,2.89c-.77,5.57-3.18,9.92-6.81,12.25A8.61,8.61,0,0,1,52.81,40C55.22,35,56.39,28.61,57,23.59ZM26.65,29.1a45.69,45.69,0,0,0,3.2,10.67c0,.09.08.18.13.27a8.61,8.61,0,0,1-3.76-1.27c-3.63-2.33-6-6.68-6.81-12.25a3.61,3.61,0,0,1,.48-2.89,2.83,2.83,0,0,1,2.24-.76,12.41,12.41,0,0,1,3.71.72C26,25.3,26.29,27.18,26.65,29.1Zm5.21,14.49A13.32,13.32,0,0,1,25,41.71c-2.65-1.59-8.78-6.41-8.66-16.79,0-3.67,1.66-5.45,4.94-5.45a13.64,13.64,0,0,1,4.28.81c0,.53.08,1.06.13,1.59a12.79,12.79,0,0,0-3.53-.59,4.3,4.3,0,0,0-3.43,1.31,5,5,0,0,0-.86,4.14,22.41,22.41,0,0,0,2.65,8.16,15,15,0,0,0,4.87,5.21,10.58,10.58,0,0,0,5.47,1.58v0l.25.42.08.13c.08.13.15.26.24.38l.09.14c.05.09.11.17.16.25l.16.24.16.23.08.1ZM51.83,63v3.52H31V63H51.83ZM44.9,59.49h2.7v1.89H35.19V59.49H44.9Zm-5.43-1.58V54.68h3.85v3.23Zm5.75-5.84a1,1,0,0,1-1,1H38.59a1,1,0,0,1,0-2.06H44.2A1,1,0,0,1,45.22,52.07Zm4-9.06,0,0-.24.29-.05.08-.27.31h0a10.77,10.77,0,0,1-2.86,2.37,4.72,4.72,0,0,0-2.35,3.35h-4a4.72,4.72,0,0,0-2.35-3.35A10.66,10.66,0,0,1,34.39,44l-.19-.22A18.08,18.08,0,0,1,32,40.51l-.21-.39C28.38,33.54,27.35,24,27,19H55.76c0,.22,0,.44,0,.68v0c0,.26,0,.51-.05.77v0c-.06.82-.13,1.63-.22,2.44l0,.48C54.8,28.56,53.59,35.14,51,40.09l-.22.42A21.13,21.13,0,0,1,49.19,43Zm8.63-1.3a13.32,13.32,0,0,1-6.89,1.88h-.2c.11-.14.21-.29.31-.43l0-.06c.09-.12.17-.25.25-.37a.86.86,0,0,1,.07-.1l.27-.43a.16.16,0,0,1,0-.07l.21-.37a.56.56,0,0,1,.05-.08,10.48,10.48,0,0,0,5.47-1.58,15,15,0,0,0,4.87-5.21A22.41,22.41,0,0,0,65,26.73a5,5,0,0,0-.86-4.14,4.31,4.31,0,0,0-3.43-1.31,12.79,12.79,0,0,0-3.53.59c0-.54.09-1.06.13-1.55v0a13.64,13.64,0,0,1,4.28-.81c3.28,0,4.89,1.78,4.94,5.45C66.6,35.3,60.46,40.12,57.82,41.71Z"/><path class="cls-1" d="M34.76,40.38l-1.32.87a14.62,14.62,0,0,0,1.44,1.85L36,42A13.93,13.93,0,0,1,34.76,40.38Z"/><path class="cls-1" d="M31.36,31.59,29.82,32a30.78,30.78,0,0,0,3,8.3l1.38-.78A29.63,29.63,0,0,1,31.36,31.59Z"/><polygon class="cls-1" points="60.95 49.47 60.94 47.88 59.61 47.89 59.6 46.55 58.02 46.55 58.02 47.89 56.69 47.89 56.69 49.47 58.02 49.47 58.02 50.81 59.61 50.81 59.61 49.47 60.95 49.47"/><polygon class="cls-1" points="26.48 57.7 26.47 56.11 25.35 56.11 25.35 54.99 23.77 54.99 23.77 56.11 22.64 56.12 22.65 57.7 23.77 57.7 23.77 58.82 25.35 58.82 25.35 57.7 26.48 57.7"/><rect class="cls-1" x="19.81" y="44.74" width="1.49" height="1.58"/><rect class="cls-1" x="29.42" y="49.43" width="1.49" height="1.58"/><rect class="cls-1" x="53.51" y="54.2" width="1.49" height="1.58"/><rect class="cls-2" width="82.79" height="82.79"/></g></g></svg>