<svg xmlns="http://www.w3.org/2000/svg" viewBox="0 0 82.79 82.79"><defs><style>.cls-1{fill:#d8226d;}.cls-2{fill:none;}</style></defs><title>Risorsa 4</title><g id="Livello_2" data-name="Livello 2"><g id="Livello_1-2" data-name="Livello 1"><path class="cls-1" d="M51.81,11.77a1.16,1.16,0,0,0-1.16,1.16v5.32a1.16,1.16,0,1,0,2.32,0V12.93A1.16,1.16,0,0,0,51.81,11.77Z"/><path class="cls-1" d="M25.2,47.87A1.16,1.16,0,1,0,26.35,49,1.16,1.16,0,0,0,25.2,47.87Z"/><path class="cls-1" d="M68,45.56a4.64,4.64,0,0,0-4.63-4.63H54.74a28.87,28.87,0,0,0,1.77-11,9.74,9.74,0,0,0-.08-1.33,4.63,4.63,0,0,0-9.25.11v1.15c0,7.32-9.4,11.43-16.49,13.2a3.48,3.48,0,0,0-3.18-2.09H15.94a1.16,1.16,0,0,0-1.16,1.16V69.86A1.16,1.16,0,0,0,15.94,71H27.51A3.47,3.47,0,0,0,30.68,69l1.64.43A37.63,37.63,0,0,0,44,71H56.44a4.64,4.64,0,0,0,3.84-7.21,4.63,4.63,0,0,0,2.32-6.94,4.63,4.63,0,0,0,2.31-6.94A4.63,4.63,0,0,0,68,45.56Zm-39.34,22a1.16,1.16,0,0,1-1.16,1.16H17.1V43.25H27.51a1.15,1.15,0,0,1,1.16,1.15ZM63.38,47.87H57.59a1.16,1.16,0,0,0,0,2.32h3.47a2.32,2.32,0,1,1,0,4.63H55.28a1.16,1.16,0,1,0,0,2.31h3.47a2.32,2.32,0,0,1,0,4.63H53a1.16,1.16,0,1,0,0,2.31h3.47a2.32,2.32,0,0,1,0,4.63H44A35.29,35.29,0,0,1,32.9,67.14L31,66.64V45.33c8.37-2,18.51-6.86,18.51-15.51V28.67a2.32,2.32,0,1,1,4.63,0h0c0,.5.63,6.67-1.89,12.26H48.34a1.16,1.16,0,0,0,0,2.32h15a2.31,2.31,0,0,1,0,4.62Z"/><path class="cls-1" d="M25.2,52.5A1.16,1.16,0,0,0,24,53.66v9.26a1.16,1.16,0,0,0,2.31,0V53.66A1.16,1.16,0,0,0,25.2,52.5Z"/><path class="cls-1" d="M42.55,26.35H37.92a1.16,1.16,0,0,0,0,2.32h4.63a1.16,1.16,0,1,0,0-2.32Z"/><path class="cls-1" d="M65.69,26.35H61.06a1.16,1.16,0,0,0,0,2.32h4.63a1.16,1.16,0,0,0,0-2.32Z"/><path class="cls-1" d="M62.44,16.87a1.15,1.15,0,0,0-1.63,0l-3.27,3.28a1.14,1.14,0,0,0,0,1.63,1.15,1.15,0,0,0,1.63,0l3.27-3.27A1.15,1.15,0,0,0,62.44,16.87Z"/><path class="cls-1" d="M46.08,20.15l-3.27-3.28a1.16,1.16,0,0,0-1.64,1.64l3.27,3.27a1.16,1.16,0,0,0,1.64,0A1.15,1.15,0,0,0,46.08,20.15Z"/><rect class="cls-2" width="82.79" height="82.79"/></g></g></svg>